<mxfile host="65bd71144e">
    <diagram id="8ZA4nfRlg9rNmeSMPSxt" name="Page-1">
        <mxGraphModel dx="983" dy="821" grid="1" gridSize="10" guides="1" tooltips="1" connect="1" arrows="1" fold="1" page="1" pageScale="1" pageWidth="850" pageHeight="1100" math="0" shadow="0">
            <root>
                <mxCell id="0"/>
                <mxCell id="1" parent="0"/>
                <mxCell id="tbDWrWu_c0ND16hASG4m-12" style="edgeStyle=orthogonalEdgeStyle;rounded=0;orthogonalLoop=1;jettySize=auto;html=1;entryX=0.5;entryY=0;entryDx=0;entryDy=0;" parent="1" source="tbDWrWu_c0ND16hASG4m-5" target="tbDWrWu_c0ND16hASG4m-8" edge="1">
                    <mxGeometry relative="1" as="geometry"/>
                </mxCell>
                <mxCell id="tbDWrWu_c0ND16hASG4m-5" value="Parse Rulesets" style="rounded=0;whiteSpace=wrap;html=1;" parent="1" vertex="1">
                    <mxGeometry x="310" y="280" width="120" height="60" as="geometry"/>
                </mxCell>
                <mxCell id="tbDWrWu_c0ND16hASG4m-15" style="edgeStyle=orthogonalEdgeStyle;rounded=0;orthogonalLoop=1;jettySize=auto;html=1;entryX=0.5;entryY=0;entryDx=0;entryDy=0;" parent="1" source="tbDWrWu_c0ND16hASG4m-8" edge="1">
                    <mxGeometry relative="1" as="geometry">
                        <mxPoint x="370" y="520" as="targetPoint"/>
                    </mxGeometry>
                </mxCell>
                <mxCell id="tbDWrWu_c0ND16hASG4m-8" value="Download/Parse Source Data" style="rounded=0;whiteSpace=wrap;html=1;" parent="1" vertex="1">
                    <mxGeometry x="310" y="400" width="120" height="60" as="geometry"/>
                </mxCell>
                <mxCell id="tbDWrWu_c0ND16hASG4m-16" value="Yes" style="edgeStyle=orthogonalEdgeStyle;rounded=0;orthogonalLoop=1;jettySize=auto;html=1;entryX=0.5;entryY=0;entryDx=0;entryDy=0;exitX=0;exitY=0.5;exitDx=0;exitDy=0;" parent="1" source="tbDWrWu_c0ND16hASG4m-27" target="tbDWrWu_c0ND16hASG4m-14" edge="1">
                    <mxGeometry relative="1" as="geometry">
                        <mxPoint x="370" y="720" as="sourcePoint"/>
                    </mxGeometry>
                </mxCell>
                <mxCell id="tbDWrWu_c0ND16hASG4m-19" style="edgeStyle=orthogonalEdgeStyle;rounded=0;orthogonalLoop=1;jettySize=auto;html=1;entryX=0.5;entryY=0;entryDx=0;entryDy=0;" parent="1" source="tbDWrWu_c0ND16hASG4m-14" target="tbDWrWu_c0ND16hASG4m-17" edge="1">
                    <mxGeometry relative="1" as="geometry"/>
                </mxCell>
                <mxCell id="tbDWrWu_c0ND16hASG4m-14" value="Validate Ruleset" style="shape=process;whiteSpace=wrap;html=1;backgroundOutline=1;" parent="1" vertex="1">
                    <mxGeometry x="150" y="720" width="120" height="60" as="geometry"/>
                </mxCell>
                <mxCell id="tbDWrWu_c0ND16hASG4m-20" value="Yes" style="edgeStyle=orthogonalEdgeStyle;rounded=0;orthogonalLoop=1;jettySize=auto;html=1;entryX=0.5;entryY=0;entryDx=0;entryDy=0;" parent="1" source="tbDWrWu_c0ND16hASG4m-17" target="tbDWrWu_c0ND16hASG4m-18" edge="1">
                    <mxGeometry relative="1" as="geometry"/>
                </mxCell>
                <mxCell id="tbDWrWu_c0ND16hASG4m-22" style="edgeStyle=orthogonalEdgeStyle;rounded=0;orthogonalLoop=1;jettySize=auto;html=1;exitX=1;exitY=0.5;exitDx=0;exitDy=0;entryX=0.5;entryY=1;entryDx=0;entryDy=0;" parent="1" source="tbDWrWu_c0ND16hASG4m-17" target="tbDWrWu_c0ND16hASG4m-27" edge="1">
                    <mxGeometry relative="1" as="geometry">
                        <mxPoint x="440" y="830" as="targetPoint"/>
                        <Array as="points">
                            <mxPoint x="370" y="860"/>
                        </Array>
                    </mxGeometry>
                </mxCell>
                <mxCell id="tbDWrWu_c0ND16hASG4m-23" value="No" style="edgeLabel;html=1;align=center;verticalAlign=middle;resizable=0;points=[];" parent="tbDWrWu_c0ND16hASG4m-22" vertex="1" connectable="0">
                    <mxGeometry x="0.5429" y="-3" relative="1" as="geometry">
                        <mxPoint x="-7" y="-26" as="offset"/>
                    </mxGeometry>
                </mxCell>
                <mxCell id="tbDWrWu_c0ND16hASG4m-17" value="Error?" style="rhombus;whiteSpace=wrap;html=1;" parent="1" vertex="1">
                    <mxGeometry x="170" y="820" width="80" height="80" as="geometry"/>
                </mxCell>
                <mxCell id="tbDWrWu_c0ND16hASG4m-18" value="Store Error" style="rounded=0;whiteSpace=wrap;html=1;" parent="1" vertex="1">
                    <mxGeometry x="150" y="960" width="120" height="60" as="geometry"/>
                </mxCell>
                <mxCell id="tbDWrWu_c0ND16hASG4m-30" style="edgeStyle=orthogonalEdgeStyle;rounded=0;orthogonalLoop=1;jettySize=auto;html=1;" parent="1" source="tbDWrWu_c0ND16hASG4m-27" edge="1">
                    <mxGeometry relative="1" as="geometry">
                        <mxPoint x="530" y="760" as="targetPoint"/>
                    </mxGeometry>
                </mxCell>
                <mxCell id="tbDWrWu_c0ND16hASG4m-27" value="Any more DataRow?" style="rhombus;whiteSpace=wrap;html=1;" parent="1" vertex="1">
                    <mxGeometry x="330" y="640" width="80" height="80" as="geometry"/>
                </mxCell>
                <mxCell id="tbDWrWu_c0ND16hASG4m-29" style="edgeStyle=orthogonalEdgeStyle;rounded=0;orthogonalLoop=1;jettySize=auto;html=1;entryX=0.5;entryY=0;entryDx=0;entryDy=0;" parent="1" source="tbDWrWu_c0ND16hASG4m-28" target="tbDWrWu_c0ND16hASG4m-27" edge="1">
                    <mxGeometry relative="1" as="geometry"/>
                </mxCell>
                <mxCell id="tbDWrWu_c0ND16hASG4m-28" value="Validate DataRows" style="rounded=0;whiteSpace=wrap;html=1;" parent="1" vertex="1">
                    <mxGeometry x="310" y="520" width="120" height="60" as="geometry"/>
                </mxCell>
                <mxCell id="tbDWrWu_c0ND16hASG4m-39" style="edgeStyle=orthogonalEdgeStyle;rounded=0;orthogonalLoop=1;jettySize=auto;html=1;entryX=0.5;entryY=0;entryDx=0;entryDy=0;" parent="1" source="tbDWrWu_c0ND16hASG4m-31" target="tbDWrWu_c0ND16hASG4m-38" edge="1">
                    <mxGeometry relative="1" as="geometry"/>
                </mxCell>
                <mxCell id="tbDWrWu_c0ND16hASG4m-31" value="Return Response&lt;br&gt;- Validation Details" style="rounded=0;whiteSpace=wrap;html=1;" parent="1" vertex="1">
                    <mxGeometry x="470" y="720" width="120" height="60" as="geometry"/>
                </mxCell>
                <mxCell id="tbDWrWu_c0ND16hASG4m-35" style="edgeStyle=orthogonalEdgeStyle;rounded=0;orthogonalLoop=1;jettySize=auto;html=1;entryX=0.5;entryY=0;entryDx=0;entryDy=0;" parent="1" source="tbDWrWu_c0ND16hASG4m-34" target="tbDWrWu_c0ND16hASG4m-5" edge="1">
                    <mxGeometry relative="1" as="geometry"/>
                </mxCell>
                <mxCell id="tbDWrWu_c0ND16hASG4m-34" value="- Data Source&lt;br&gt;-Validation Rulesets" style="shape=parallelogram;perimeter=parallelogramPerimeter;whiteSpace=wrap;html=1;fixedSize=1;" parent="1" vertex="1">
                    <mxGeometry x="295" y="160" width="150" height="80" as="geometry"/>
                </mxCell>
                <mxCell id="tbDWrWu_c0ND16hASG4m-37" style="edgeStyle=orthogonalEdgeStyle;rounded=0;orthogonalLoop=1;jettySize=auto;html=1;entryX=0.5;entryY=0;entryDx=0;entryDy=0;" parent="1" source="tbDWrWu_c0ND16hASG4m-36" target="tbDWrWu_c0ND16hASG4m-34" edge="1">
                    <mxGeometry relative="1" as="geometry"/>
                </mxCell>
                <mxCell id="tbDWrWu_c0ND16hASG4m-36" value="Start" style="ellipse;whiteSpace=wrap;html=1;aspect=fixed;" parent="1" vertex="1">
                    <mxGeometry x="330" y="40" width="80" height="80" as="geometry"/>
                </mxCell>
                <mxCell id="tbDWrWu_c0ND16hASG4m-38" value="End" style="ellipse;whiteSpace=wrap;html=1;aspect=fixed;" parent="1" vertex="1">
                    <mxGeometry x="490" y="840" width="80" height="80" as="geometry"/>
                </mxCell>
            </root>
        </mxGraphModel>
    </diagram>
</mxfile>